<svg width="30" height="30" viewBox="0 0 30 30" fill="none" xmlns="http://www.w3.org/2000/svg">
<path d="M1.59116 13.5949L1.59118 13.595L1.59675 13.5894L5.82262 9.35014L11.4579 14.9981L5.82262 20.6461L1.59675 16.4069L1.59677 16.4068L1.59116 16.4013C0.802946 15.623 0.802946 14.3733 1.59116 13.5949ZM28.4088 16.4013L28.4088 16.4013L28.4033 16.4069L24.1774 20.6461L18.5421 14.9981L24.1774 9.35014L28.4033 13.5894L28.4032 13.5894L28.4088 13.5949C29.1971 14.3733 29.1971 15.623 28.4088 16.4013ZM13.5972 28.4088L13.5972 28.4088L13.5916 28.4032L9.35272 24.1767L15 18.5407L20.6473 24.1767L16.4084 28.4032L16.4084 28.4032L16.4028 28.4088C15.6247 29.1971 14.3753 29.1971 13.5972 28.4088ZM15 11.4556L9.35272 5.81959L13.5874 1.59717C14.0159 1.18075 14.5142 1 15 1C15.4858 1 15.984 1.18074 16.4125 1.59714L20.6473 5.81959L15 11.4556Z" fill="white" stroke="black" stroke-width="2"/>
</svg>
